Jump_normalized_precision_landing06_filtered_grf
version=1
nRows=30
nColumns=37
inDegrees=yes
endheader
time		1_ground_force_vx		1_ground_force_vy		1_ground_force_vz		1_ground_force_px		1_ground_force_py		1_ground_force_pz		1_ground_torque_x		1_ground_torque_y		1_ground_torque_z		2_ground_force_vx		2_ground_force_vy		2_ground_force_vz		2_ground_force_px		2_ground_force_py		2_ground_force_pz		2_ground_torque_x		2_ground_torque_y		2_ground_torque_z		3_ground_force_vx		3_ground_force_vy		3_ground_force_vz		3_ground_force_px		3_ground_force_py		3_ground_force_pz		3_ground_torque_x		3_ground_torque_y		3_ground_torque_z		4_ground_force_vx		4_ground_force_vy		4_ground_force_vz		4_ground_force_px		4_ground_force_py		4_ground_force_pz		4_ground_torque_x		4_ground_torque_y		4_ground_torque_z		
0.516167		-0.000000		0.000000		0.000000		0.123103		0.000000		0.286396		0.000000		0.000000		-0.000000		0.000000		0.000000		-0.000000		-0.153779		0.000000		0.276501		0.000000		-0.000000		0.000000		6.840905		286.457357		-113.971611		0.380994		1.274897		1.889728		1.293288		-26.101537		-32.585946		46.685877		382.686654		-128.720622		-0.351536		1.267568		1.877570		2.142927		17.565696		-5.908398		
0.519071		-0.000000		0.000000		0.000000		0.123103		0.000000		0.286396		0.000000		0.000000		-0.000000		0.000000		0.000000		0.000000		-0.153779		0.000000		0.276501		0.000000		-0.000000		0.000000		8.375067		271.744524		-113.989466		0.380967		1.274957		1.889769		1.182191		-25.380686		-30.730211		45.293873		367.588043		-130.222519		-0.351527		1.267595		1.877590		2.072101		16.816398		-5.957409		
0.521975		-0.000000		0.000000		0.000000		0.123103		0.000000		0.286396		0.000000		0.000000		-0.000000		0.000000		0.000000		0.000000		-0.153779		0.000000		0.276501		0.000000		-0.000000		0.000000		9.896577		256.594748		-113.103746		0.380944		1.275014		1.889801		1.086116		-24.527449		-28.850453		43.994708		351.831441		-131.235588		-0.351515		1.267634		1.877604		2.004261		16.028344		-5.978683		
0.524879		-0.000000		0.000000		0.000000		0.123103		0.000000		0.286396		0.000000		0.000000		-0.000000		0.000000		0.000000		0.000000		-0.153779		0.000000		0.276501		0.000000		-0.000000		0.000000		11.333939		241.089603		-111.162844		0.380927		1.275070		1.889821		1.006351		-23.531219		-26.961034		42.684357		335.524453		-131.680308		-0.351502		1.267683		1.877609		1.935200		15.211836		-5.970046		
0.527783		0.000000		-0.000000		-0.000000		0.123103		0.000000		0.286396		-0.000000		-0.000000		0.000000		-0.000000		0.000000		0.000000		-0.153779		0.000000		0.276501		0.000000		-0.000000		0.000000		12.611516		225.293980		-108.086898		0.380913		1.275124		1.889824		0.940956		-22.390745		-25.071796		41.262696		318.818449		-131.465841		-0.351489		1.267739		1.877601		1.860943		14.378683		-5.929086		
0.530687		0.000000		-0.000000		-0.000000		0.123103		0.000000		0.286396		-0.000000		-0.000000		0.000000		-0.000000		0.000000		0.000000		-0.153779		0.000000		0.276501		0.000000		-0.000000		0.000000		13.669864		209.250226		-103.867850		0.380899		1.275180		1.889809		-0.498560		-7.631799		3.788266		39.659026		301.861385		-130.496905		-0.351474		1.267797		1.877579		1.778822		13.539357		-5.853154		
0.533591		0.000000		-0.000000		-0.000000		0.123103		0.000000		0.286396		-0.000000		-0.000000		0.000000		-0.000000		-0.000000		-0.000000		-0.153779		0.000000		0.276501		-0.000000		0.000000		-0.000000		14.482895		192.987864		-98.572689		0.380880		1.275238		1.889775		-0.519228		-6.918908		3.533974		37.840147		284.764520		-128.685742		-0.351455		1.267853		1.877539		1.687739		12.701015		-5.739612		
0.536495		0.000000		-0.000000		-0.000000		0.123103		0.000000		0.286396		-0.000000		-0.000000		0.000000		-0.000000		-0.000000		-0.000000		-0.153779		0.000000		0.276501		-0.000000		0.000000		-0.000000		15.063312		176.538880		-92.334024		0.380852		1.275300		1.889721		-0.530816		-6.221050		3.253756		35.808089		267.582860		-125.956493		-0.351430		1.267902		1.877479		1.587972		11.866430		-5.585761		
0.539399		0.000000		-0.000000		-0.000000		0.123103		0.000000		0.286396		-0.000000		-0.000000		0.000000		-0.000000		-0.000000		-0.000000		-0.153779		0.000000		0.276501		-0.000000		0.000000		-0.000000		15.458566		159.962251		-85.325253		0.380812		1.275364		1.889647		-0.535045		-5.536602		2.953267		33.589318		250.315362		-122.244722		-0.351399		1.267943		1.877399		1.480659		11.034213		-5.388693		
0.542303		-0.000000		-0.000000		-0.000000		0.123103		0.000000		0.286396		-0.000000		-0.000000		0.000000		-0.000000		-0.000000		-0.000000		-0.153779		0.000000		0.276501		-0.000000		0.000000		-0.000000		15.738004		143.368439		-77.751421		0.380762		1.275427		1.889552		-0.533874		-4.863533		2.637580		31.223634		232.926294		-117.514693		-0.351363		1.267978		1.877295		1.367350		10.200338		-5.146211		
0.545207		-0.000000		0.000000		0.000000		0.123103		0.000000		0.286396		0.000000		0.000000		-0.000000		0.000000		-0.000000		-0.000000		-0.153779		0.000000		0.276501		-0.000000		0.000000		-0.000000		15.971706		126.929437		-69.823116		0.380704		1.275486		1.889431		-0.528629		-4.201210		2.311054		28.748035		215.373890		-111.748198		-0.351327		1.268006		1.877169		1.249451		9.360605		-4.856806		
0.548111		-0.000000		0.000000		0.000000		0.123103		0.000000		0.286396		0.000000		0.000000		-0.000000		0.000000		-0.000000		-0.000000		-0.153779		0.000000		0.276501		-0.000000		0.000000		0.000000		16.220441		110.877769		-61.754991		0.380646		1.275538		1.889286		-0.519502		-3.551264		1.977923		26.187337		197.640527		-104.954859		-0.351293		1.268030		1.877024		1.127993		8.513157		-4.520815		
0.551015		-0.000000		0.000000		0.000000		0.123103		0.000000		0.286396		0.000000		0.000000		-0.000000		0.000000		0.000000		0.000000		-0.153779		0.000000		0.276501		0.000000		-0.000000		0.000000		16.518885		95.481033		-53.776547		0.380597		1.275581		1.889118		-0.504842		-2.918074		1.643508		23.548762		179.749614		-97.185269		-0.351265		1.268053		1.876866		1.003558		7.660241		-4.141664		
0.553919		-0.000000		0.000000		0.000000		0.123103		0.000000		0.286396		0.000000		0.000000		-0.000000		0.000000		0.000000		0.000000		-0.153779		0.000000		0.276501		0.000000		-0.000000		0.000000		16.872794		81.015491		-46.121963		0.380565		1.275613		1.888930		-0.480994		-2.309662		1.314881		20.819416		161.765689		-88.549289		-0.351243		1.268077		1.876701		0.876258		6.808467		-3.726900		
0.556823		-0.000000		0.000000		0.000000		0.123103		0.000000		0.286396		0.000000		0.000000		-0.000000		0.000000		0.000000		0.000000		-0.153779		0.000000		0.276501		0.000000		-0.000000		0.000000		17.261025		67.710048		-38.995152		0.380557		1.275634		1.888723		-0.442893		-1.737659		1.000731		17.972335		143.786448		-79.245051		-0.351227		1.268101		1.876532		0.745881		5.967344		-3.288782		
0.559727		0.000000		-0.000000		-0.000000		0.123103		0.000000		0.286396		-0.000000		-0.000000		0.000000		-0.000000		0.000000		0.000000		-0.153779		0.000000		0.276501		0.000000		-0.000000		0.000000		17.637662		55.709979		-32.540048		0.380576		1.275640		1.888496		-0.385112		-1.216805		0.710715		14.978217		125.926979		-69.551021		-0.351215		1.268125		1.876363		0.612173		5.146710		-2.842591		
0.562631		0.000000		-0.000000		-0.000000		0.123103		0.000000		0.286396		-0.000000		-0.000000		0.000000		-0.000000		0.000000		0.000000		-0.153779		0.000000		0.276501		0.000000		-0.000000		0.000000		17.935556		45.048741		-26.816823		0.380623		1.275633		1.888249		-0.303844		-0.763496		0.454478		11.822956		108.314227		-59.809163		-0.351204		1.268147		1.876191		0.475336		4.354673		-2.404572		
0.565535		0.000000		-0.000000		-0.000000		0.123103		0.000000		0.286396		-0.000000		-0.000000		0.000000		-0.000000		-0.000000		0.000000		-0.153779		0.000000		0.276501		-0.000000		0.000000		-0.000000		18.067032		35.650307		-21.806026		0.380693		1.275613		1.887974		-0.199475		-0.393718		0.240814		8.527255		91.098151		-50.383440		-0.351191		1.268169		1.876012		0.336701		3.597014		-1.989391		
0.568439		0.000000		-0.000000		-0.000000		0.123103		0.000000		0.286396		-0.000000		-0.000000		0.000000		-0.000000		-0.000000		-0.000000		-0.153779		0.000000		0.276501		-0.000000		0.000000		-0.000000		17.937848		27.377135		-17.439126		0.380777		1.275586		1.887673		-0.078988		-0.120714		0.076875		5.161630		74.484284		-41.603139		-0.351174		1.268193		1.875820		0.199500		2.878772		-1.607933		
0.571343		0.000000		-0.000000		-0.000000		0.123103		0.000000		0.286396		-0.000000		-0.000000		0.000000		-0.000000		-0.000000		-0.000000		-0.153779		0.000000		0.276501		-0.000000		0.000000		-0.000000		17.488138		20.090378		-13.631122		0.380865		1.275559		1.887346		0.042924		0.049046		-0.033324		1.850590		58.761429		-33.697499		-0.351155		1.268218		1.875610		1.201961		6.074267		5.540957		
0.574247		-0.000000		-0.000000		-0.000000		0.123103		0.000000		0.286396		-0.000000		-0.000000		0.000000		-0.000000		-0.000000		-0.000000		-0.153779		0.000000		0.276501		-0.000000		0.000000		-0.000000		16.715675		13.720463		-10.336294		0.380948		1.275544		1.887003		0.144393		0.118314		-0.089188		-1.240952		44.307430		-26.767205		-0.351137		1.268247		1.875380		0.975297		4.691968		4.123290		
0.577152		-0.000000		0.000000		0.000000		0.123103		0.000000		0.286396		0.000000		0.000000		-0.000000		0.000000		-0.000000		-0.000000		-0.153779		0.000000		0.276501		-0.000000		0.000000		-0.000000		15.685212		8.296673		-7.578615		0.381017		1.275545		1.886655		0.196407		0.103840		-0.094876		-3.932384		31.552878		-20.802192		-0.351120		1.268281		1.875131		0.740083		3.499032		2.860300		
0.580056		-0.000000		0.000000		0.000000		0.123103		0.000000		0.286396		0.000000		0.000000		-0.000000		0.000000		-0.000000		-0.000000		-0.153779		0.000000		0.276501		-0.000000		0.000000		-0.000000		14.519955		3.917562		-5.439612		0.381065		1.275567		1.886318		0.172825		0.046667		-0.064760		-6.062684		20.889488		-15.728981		-0.351108		1.268315		1.874864		-0.173523		0.598168		-0.450353		
0.582960		-0.000000		0.000000		0.000000		0.123103		0.000000		0.286396		0.000000		0.000000		-0.000000		0.000000		0.000000		0.000000		-0.153779		0.000000		0.276501		0.000000		-0.000000		0.000000		13.370890		0.680948		-4.005762		0.381088		1.275608		1.886010		0.083697		0.004305		-0.025087		-7.527206		12.564111		-11.468625		-0.351102		1.268345		1.874583		-0.158175		0.264204		-0.241112		
0.585864		-0.000000		0.000000		0.000000		0.123103		0.000000		0.286396		0.000000		0.000000		-0.000000		0.000000		0.000000		0.000000		-0.153779		0.000000		0.276501		0.000000		-0.000000		0.000000		12.373854		-1.403253		-3.291760		0.381092		1.275662		1.885739		-0.015273		0.001802		0.004057		-8.311690		6.588074		-7.963678		-0.351098		1.268362		1.874295		-0.091007		0.072451		-0.087412		
0.588768		-0.000000		0.000000		0.000000		0.123103		0.000000		0.286396		0.000000		0.000000		-0.000000		0.000000		0.000000		0.000000		-0.153779		0.000000		0.276501		0.000000		-0.000000		0.000000		11.609849		-2.460682		-3.201276		0.381084		1.275720		1.885509		-0.078232		0.016602		0.021581		-8.502843		2.722416		-5.170534		-0.351094		1.268363		1.874001		-0.026244		0.008513		-0.016050		
0.591672		0.000000		-0.000000		0.000000		0.123103		0.000000		0.286396		-0.000000		-0.000000		0.000000		0.000000		0.000000		0.000000		-0.153779		0.000000		0.276501		0.000000		-0.000000		0.000000		11.096598		-2.727492		-3.553919		0.381075		1.275775		1.885318		-0.096475		0.023713		0.030899		-8.264030		0.558713		-3.041300		-0.351086		1.268345		1.873706		-0.005095		0.000349		-0.001881		
0.594576		0.000000		-0.000000		-0.000000		0.123103		0.000000		0.286396		-0.000000		-0.000000		0.000000		-0.000000		0.000000		0.000000		-0.153779		0.000000		0.276501		0.000000		-0.000000		0.000000		10.802857		-2.497880		-4.143025		0.381074		1.275822		1.885161		-0.081524		0.018853		0.031259		-7.795661		-0.392590		-1.504781		-0.351073		1.268311		1.873414		-0.004140		-0.000208		-0.000800		
0.597480		0.000000		-0.000000		-0.000000		0.123103		0.000000		0.286396		-0.000000		-0.000000		0.000000		-0.000000		-0.000000		0.000000		-0.153779		0.000000		0.276501		-0.000000		0.000000		-0.000000		10.673811		-2.058125		-4.786138		0.381087		1.275860		1.885029		-0.051406		0.009914		0.023049		-7.286906		-0.605145		-0.464964		-0.351051		1.268266		1.873128		0.001426		0.000119		0.000090		
0.600384		0.000000		-0.000000		-0.000000		0.123103		0.000000		0.286396		-0.000000		-0.000000		0.000000		-0.000000		-0.000000		-0.000000		-0.153779		0.000000		0.276501		-0.000000		0.000000		-0.000000		10.654187		-1.633980		-5.343603		0.381116		1.275889		1.884914		-0.022680		0.003483		0.011369		-6.878849		-0.466049		0.188898		-0.351023		1.268221		1.872853		0.013359		0.000903		-0.000372		
